<?xml version="1.0" standalone="yes"?>

<svg version="1.1" viewBox="0.0 0.0 960.0 540.0" fill="none" stroke="none" stroke-linecap="square" stroke-miterlimit="10" xmlns="http://www.w3.org/2000/svg" xmlns:xlink="http://www.w3.org/1999/xlink"><clipPath id="p.0"><path d="m0 0l960.0 0l0 540.0l-960.0 0l0 -540.0z" clip-rule="nonzero"></path></clipPath><g clip-path="url(#p.0)"><path fill="#ffffff" d="m0 0l960.0 0l0 540.0l-960.0 0z" fill-rule="nonzero"></path><path fill="#d9d2e9" d="m226.22835 265.07086l140.47243 0l0 41.858276l-140.47243 0z" fill-rule="nonzero"></path><path fill="#000000" d="m276.48154 287.82626q0 2.484375 -1.25 3.890625q-1.25 1.390625 -3.453125 1.390625q-1.375 0 -2.4375 -0.640625q-1.046875 -0.640625 -1.625 -1.828125q-0.578125 -1.203125 -0.578125 -2.8125q0 -2.484375 1.234375 -3.875q1.25 -1.390625 3.46875 -1.390625q2.125 0 3.375 1.421875q1.265625 1.421875 1.265625 3.84375zm-7.75 0q0 1.953125 0.78125 2.96875q0.78125 1.015625 2.296875 1.015625q1.515625 0 2.296875 -1.015625q0.78125 -1.015625 0.78125 -2.96875q0 -1.9375 -0.78125 -2.9375q-0.78125 -1.015625 -2.3125 -1.015625q-1.515625 0 -2.296875 1.0q-0.765625 0.984375 -0.765625 2.953125zm11.784058 5.09375l-1.53125 0l0 -14.4375l1.53125 0l0 14.4375zm4.7187195 0l-1.53125 0l0 -10.171875l1.53125 0l0 10.171875zm-1.671875 -12.921875q0 -0.53125 0.25 -0.765625q0.265625 -0.25 0.65625 -0.25q0.375 0 0.640625 0.25q0.28125 0.25 0.28125 0.765625q0 0.515625 -0.28125 0.78125q-0.265625 0.25 -0.640625 0.25q-0.390625 0 -0.65625 -0.25q-0.25 -0.265625 -0.25 -0.78125zm13.1718445 2.75l0 0.984375l-1.875 0.21875q0.25 0.328125 0.453125 0.859375q0.203125 0.515625 0.203125 1.171875q0 1.484375 -1.015625 2.375q-1.015625 0.890625 -2.796875 0.890625q-0.453125 0 -0.859375 -0.0625q-0.984375 0.515625 -0.984375 1.296875q0 0.421875 0.34375 0.625q0.34375 0.203125 1.1875 0.203125l1.796875 0q1.640625 0 2.53125 0.703125q0.890625 0.6875 0.890625 2.015625q0 1.6875 -1.359375 2.5625q-1.359375 0.890625 -3.953125 0.890625q-1.984375 0 -3.078125 -0.75q-1.078125 -0.734375 -1.078125 -2.09375q0 -0.921875 0.59375 -1.609375q0.59375 -0.671875 1.671875 -0.90625q-0.390625 -0.171875 -0.65625 -0.546875q-0.265625 -0.375 -0.265625 -0.859375q0 -0.5625 0.296875 -0.96875q0.296875 -0.421875 0.9375 -0.8125q-0.78125 -0.328125 -1.28125 -1.109375q-0.5 -0.78125 -0.5 -1.78125q0 -1.671875 1.0 -2.578125q1.0 -0.90625 2.84375 -0.90625q0.796875 0 1.4375 0.1875l3.515625 0zm-8.109375 11.875q0 0.828125 0.6875 1.25q0.703125 0.4375 2.0 0.4375q1.9375 0 2.875 -0.578125q0.9375 -0.578125 0.9375 -1.578125q0 -0.828125 -0.515625 -1.15625q-0.515625 -0.3125 -1.921875 -0.3125l-1.84375 0q-1.046875 0 -1.640625 0.5q-0.578125 0.5 -0.578125 1.4375zm0.84375 -8.609375q0 1.0625 0.59375 1.609375q0.609375 0.546875 1.6875 0.546875q2.25 0 2.25 -2.1875q0 -2.296875 -2.28125 -2.296875q-1.09375 0 -1.671875 0.59375q-0.578125 0.578125 -0.578125 1.734375zm17.939606 1.8125q0 2.484375 -1.25 3.890625q-1.25 1.390625 -3.453125 1.390625q-1.375 0 -2.4375 -0.640625q-1.046875 -0.640625 -1.625 -1.828125q-0.578125 -1.203125 -0.578125 -2.8125q0 -2.484375 1.234375 -3.875q1.25 -1.390625 3.46875 -1.390625q2.125 0 3.375 1.421875q1.265625 1.421875 1.265625 3.84375zm-7.75 0q0 1.953125 0.78125 2.96875q0.78125 1.015625 2.296875 1.015625q1.515625 0 2.296875 -1.015625q0.78125 -1.015625 0.78125 -2.96875q0 -1.9375 -0.78125 -2.9375q-0.78125 -1.015625 -2.3125 -1.015625q-1.515625 0 -2.296875 1.0q-0.765625 0.984375 -0.765625 2.953125zm10.018463 4.109375q0 -0.625 0.28125 -0.9375q0.28125 -0.328125 0.8125 -0.328125q0.546875 0 0.84375 0.328125q0.296875 0.3125 0.296875 0.9375q0 0.609375 -0.3125 0.9375q-0.296875 0.3125 -0.828125 0.3125q-0.46875 0 -0.78125 -0.28125q-0.3125 -0.296875 -0.3125 -0.96875zm3.9646606 5.546875q-0.890625 0 -1.4375 -0.234375l0 -1.25q0.640625 0.1875 1.265625 0.1875q0.71875 0 1.0625 -0.390625q0.34375 -0.390625 0.34375 -1.203125l0 -11.84375l1.53125 0l0 11.734375q0 3.0 -2.765625 3.0zm1.09375 -17.484375q0 -0.53125 0.25 -0.765625q0.265625 -0.25 0.65625 -0.25q0.375 0 0.640625 0.25q0.28125 0.25 0.28125 0.765625q0 0.515625 -0.28125 0.78125q-0.265625 0.25 -0.640625 0.25q-0.390625 0 -0.65625 -0.25q-0.25 -0.265625 -0.25 -0.78125zm11.4062195 10.140625q0 1.421875 -1.0625 2.203125q-1.046875 0.765625 -2.953125 0.765625q-2.03125 0 -3.15625 -0.640625l0 -1.4375q0.734375 0.375 1.5625 0.59375q0.84375 0.21875 1.625 0.21875q1.203125 0 1.84375 -0.390625q0.65625 -0.390625 0.65625 -1.171875q0 -0.59375 -0.515625 -1.015625q-0.515625 -0.421875 -2.0 -1.0q-1.421875 -0.53125 -2.03125 -0.921875q-0.59375 -0.390625 -0.890625 -0.890625q-0.28125 -0.515625 -0.28125 -1.203125q0 -1.25 1.0 -1.96875q1.015625 -0.71875 2.78125 -0.71875q1.640625 0 3.21875 0.671875l-0.546875 1.25q-1.53125 -0.625 -2.78125 -0.625q-1.09375 0 -1.65625 0.34375q-0.546875 0.34375 -0.546875 0.9375q0 0.421875 0.203125 0.703125q0.203125 0.28125 0.671875 0.546875q0.46875 0.265625 1.78125 0.75q1.8125 0.65625 2.4375 1.328125q0.640625 0.671875 0.640625 1.671875z" fill-rule="nonzero"></path><path fill="#d9d2e9" d="m322.30185 342.53806l140.47244 0l0 41.858276l-140.47244 0z" fill-rule="nonzero"></path><path fill="#000000" d="m347.26898 370.57468q-2.21875 0 -3.4375 -1.359375q-1.203125 -1.359375 -1.203125 -3.84375q0 -2.5625 1.234375 -3.953125q1.234375 -1.390625 3.5 -1.390625q0.734375 0 1.46875 0.171875q0.734375 0.15625 1.15625 0.359375l-0.484375 1.3125q-0.5 -0.203125 -1.109375 -0.328125q-0.609375 -0.140625 -1.0625 -0.140625q-3.109375 0 -3.109375 3.953125q0 1.875 0.75 2.875q0.765625 1.0 2.25 1.0q1.28125 0 2.609375 -0.546875l0 1.359375q-1.015625 0.53125 -2.5625 0.53125zm13.5849 -5.28125q0 2.484375 -1.25 3.890625q-1.25 1.390625 -3.453125 1.390625q-1.375 0 -2.4375 -0.640625q-1.046875 -0.640625 -1.625 -1.828125q-0.578125 -1.203125 -0.578125 -2.8125q0 -2.484375 1.234375 -3.875q1.25 -1.390625 3.46875 -1.390625q2.125 0 3.375 1.421875q1.265625 1.421875 1.265625 3.84375zm-7.75 0q0 1.953125 0.78125 2.96875q0.78125 1.015625 2.296875 1.015625q1.515625 0 2.296875 -1.015625q0.78125 -1.015625 0.78125 -2.96875q0 -1.9375 -0.78125 -2.9375q-0.78125 -1.015625 -2.3125 -1.015625q-1.515625 0 -2.296875 1.0q-0.765625 0.984375 -0.765625 2.953125zm23.205933 5.09375l0 -6.609375q0 -1.21875 -0.53125 -1.828125q-0.515625 -0.609375 -1.609375 -0.609375q-1.4375 0 -2.125 0.828125q-0.671875 0.828125 -0.671875 2.546875l0 5.671875l-1.546875 0l0 -6.609375q0 -1.21875 -0.53125 -1.828125q-0.515625 -0.609375 -1.609375 -0.609375q-1.453125 0 -2.125 0.875q-0.671875 0.859375 -0.671875 2.84375l0 5.328125l-1.53125 0l0 -10.171875l1.25 0l0.25 1.390625l0.0625 0q0.4375 -0.734375 1.234375 -1.15625q0.796875 -0.421875 1.78125 -0.421875q2.375 0 3.109375 1.734375l0.078125 0q0.453125 -0.796875 1.3125 -1.265625q0.875 -0.46875 1.96875 -0.46875q1.734375 0 2.59375 0.890625q0.859375 0.890625 0.859375 2.828125l0 6.640625l-1.546875 0zm17.353607 0l0 -6.609375q0 -1.21875 -0.53125 -1.828125q-0.515625 -0.609375 -1.609375 -0.609375q-1.4375 0 -2.125 0.828125q-0.671875 0.828125 -0.671875 2.546875l0 5.671875l-1.546875 0l0 -6.609375q0 -1.21875 -0.53125 -1.828125q-0.515625 -0.609375 -1.609375 -0.609375q-1.453125 0 -2.125 0.875q-0.671875 0.859375 -0.671875 2.84375l0 5.328125l-1.53125 0l0 -10.171875l1.25 0l0.25 1.390625l0.0625 0q0.4375 -0.734375 1.234375 -1.15625q0.796875 -0.421875 1.78125 -0.421875q2.375 0 3.109375 1.734375l0.078125 0q0.453125 -0.796875 1.3125 -1.265625q0.875 -0.46875 1.96875 -0.46875q1.734375 0 2.59375 0.890625q0.859375 0.890625 0.859375 2.828125l0 6.640625l-1.546875 0zm8.681702 0.1875q-2.25 0 -3.5625 -1.375q-1.296875 -1.375 -1.296875 -3.8125q0 -2.453125 1.203125 -3.90625q1.21875 -1.453125 3.265625 -1.453125q1.90625 0 3.015625 1.265625q1.125 1.25 1.125 3.3125l0 0.96875l-7.015625 0q0.046875 1.796875 0.90625 2.734375q0.859375 0.921875 2.421875 0.921875q1.640625 0 3.25 -0.6875l0 1.375q-0.8125 0.34375 -1.546875 0.5q-0.734375 0.15625 -1.765625 0.15625zm-0.40625 -9.25q-1.234375 0 -1.96875 0.796875q-0.71875 0.796875 -0.84375 2.203125l5.3125 0q0 -1.453125 -0.65625 -2.21875q-0.640625 -0.78125 -1.84375 -0.78125zm13.544952 9.0625l0 -6.578125q0 -1.25 -0.578125 -1.859375q-0.5625 -0.609375 -1.765625 -0.609375q-1.59375 0 -2.34375 0.875q-0.734375 0.859375 -0.734375 2.84375l0 5.328125l-1.53125 0l0 -10.171875l1.25 0l0.25 1.390625l0.0625 0q0.484375 -0.75 1.328125 -1.15625q0.859375 -0.421875 1.90625 -0.421875q1.84375 0 2.765625 0.890625q0.921875 0.890625 0.921875 2.828125l0 6.640625l-1.53125 0zm7.7787476 -1.078125q0.40625 0 0.78125 -0.0625q0.390625 -0.0625 0.609375 -0.125l0 1.171875q-0.25 0.125 -0.75 0.203125q-0.484375 0.078125 -0.875 0.078125q-2.9375 0 -2.9375 -3.109375l0 -6.046875l-1.46875 0l0 -0.75l1.46875 -0.640625l0.640625 -2.171875l0.890625 0l0 2.359375l2.953125 0l0 1.203125l-2.953125 0l0 5.984375q0 0.921875 0.4375 1.421875q0.4375 0.484375 1.203125 0.484375zm3.0705566 0.09375q0 -0.625 0.28125 -0.9375q0.28125 -0.328125 0.8125 -0.328125q0.546875 0 0.84375 0.328125q0.296875 0.3125 0.296875 0.9375q0 0.609375 -0.3125 0.9375q-0.296875 0.3125 -0.828125 0.3125q-0.46875 0 -0.78125 -0.28125q-0.3125 -0.296875 -0.3125 -0.96875zm3.9646606 5.546875q-0.890625 0 -1.4375 -0.234375l0 -1.25q0.640625 0.1875 1.265625 0.1875q0.71875 0 1.0625 -0.390625q0.34375 -0.390625 0.34375 -1.203125l0 -11.84375l1.53125 0l0 11.734375q0 3.0 -2.765625 3.0zm1.09375 -17.484375q0 -0.53125 0.25 -0.765625q0.265625 -0.25 0.65625 -0.25q0.375 0 0.640625 0.25q0.28125 0.25 0.28125 0.765625q0 0.515625 -0.28125 0.78125q-0.265625 0.25 -0.640625 0.25q-0.390625 0 -0.65625 -0.25q-0.25 -0.265625 -0.25 -0.78125zm11.4062195 10.140625q0 1.421875 -1.0625 2.203125q-1.046875 0.765625 -2.953125 0.765625q-2.03125 0 -3.15625 -0.640625l0 -1.4375q0.734375 0.375 1.5625 0.59375q0.84375 0.21875 1.625 0.21875q1.203125 0 1.84375 -0.390625q0.65625 -0.390625 0.65625 -1.171875q0 -0.59375 -0.515625 -1.015625q-0.515625 -0.421875 -2.0 -1.0q-1.421875 -0.53125 -2.03125 -0.921875q-0.59375 -0.390625 -0.890625 -0.890625q-0.28125 -0.515625 -0.28125 -1.203125q0 -1.25 1.0 -1.96875q1.015625 -0.71875 2.78125 -0.71875q1.640625 0 3.21875 0.671875l-0.546875 1.25q-1.53125 -0.625 -2.78125 -0.625q-1.09375 0 -1.65625 0.34375q-0.546875 0.34375 -0.546875 0.9375q0 0.421875 0.203125 0.703125q0.203125 0.28125 0.671875 0.546875q0.46875 0.265625 1.78125 0.75q1.8125 0.65625 2.4375 1.328125q0.640625 0.671875 0.640625 1.671875z" fill-rule="nonzero"></path><path fill="#d9d2e9" d="m185.58005 195.60367l140.47244 0l0 41.858276l-140.47244 0z" fill-rule="nonzero"></path><path fill="#000000" d="m225.86687 220.67155q0 1.421875 -1.0625 2.203125q-1.046875 0.765625 -2.953125 0.765625q-2.03125 0 -3.15625 -0.640625l0 -1.4375q0.734375 0.375 1.5625 0.59375q0.84375 0.21875 1.625 0.21875q1.203125 0 1.84375 -0.390625q0.65625 -0.390625 0.65625 -1.171875q0 -0.59375 -0.515625 -1.015625q-0.515625 -0.421875 -2.0 -1.0q-1.421875 -0.53125 -2.03125 -0.921875q-0.59375 -0.390625 -0.890625 -0.890625q-0.28125 -0.515625 -0.28125 -1.203125q0 -1.25 1.0 -1.96875q1.015625 -0.71875 2.78125 -0.71875q1.640625 0 3.21875 0.671875l-0.546875 1.25q-1.53125 -0.625 -2.78125 -0.625q-1.09375 0 -1.65625 0.34375q-0.546875 0.34375 -0.546875 0.9375q0 0.421875 0.203125 0.703125q0.203125 0.28125 0.671875 0.546875q0.46875 0.265625 1.78125 0.75q1.8125 0.65625 2.4375 1.328125q0.640625 0.671875 0.640625 1.671875zm6.6343536 2.96875q-2.25 0 -3.5625 -1.375q-1.296875 -1.375 -1.296875 -3.8125q0 -2.453125 1.203125 -3.90625q1.21875 -1.453125 3.265625 -1.453125q1.90625 0 3.015625 1.265625q1.125 1.25 1.125 3.3125l0 0.96875l-7.015625 0q0.046875 1.796875 0.90625 2.734375q0.859375 0.921875 2.421875 0.921875q1.640625 0 3.25 -0.6875l0 1.375q-0.8125 0.34375 -1.546875 0.5q-0.734375 0.15625 -1.765625 0.15625zm-0.40625 -9.25q-1.234375 0 -1.96875 0.796875q-0.71875 0.796875 -0.84375 2.203125l5.3125 0q0 -1.453125 -0.65625 -2.21875q-0.640625 -0.78125 -1.84375 -0.78125zm12.841812 9.0625l-0.3125 -1.453125l-0.078125 0q-0.75 0.96875 -1.515625 1.3125q-0.75 0.328125 -1.890625 0.328125q-1.5 0 -2.359375 -0.78125q-0.859375 -0.78125 -0.859375 -2.21875q0 -3.078125 4.921875 -3.234375l1.734375 -0.046875l0 -0.625q0 -1.203125 -0.515625 -1.765625q-0.515625 -0.578125 -1.65625 -0.578125q-1.265625 0 -2.875 0.78125l-0.46875 -1.1875q0.75 -0.40625 1.640625 -0.625q0.90625 -0.234375 1.796875 -0.234375q1.828125 0 2.703125 0.8125q0.875 0.796875 0.875 2.578125l0 6.9375l-1.140625 0zm-3.484375 -1.078125q1.4375 0 2.25 -0.78125q0.828125 -0.796875 0.828125 -2.21875l0 -0.921875l-1.53125 0.0625q-1.84375 0.0625 -2.65625 0.578125q-0.8125 0.5 -0.8125 1.5625q0 0.84375 0.5 1.28125q0.515625 0.4375 1.421875 0.4375zm12.235092 -9.28125q0.6875 0 1.21875 0.109375l-0.203125 1.4375q-0.640625 -0.140625 -1.125 -0.140625q-1.234375 0 -2.109375 1.0q-0.875 1.0 -0.875 2.5l0 5.453125l-1.53125 0l0 -10.171875l1.265625 0l0.171875 1.890625l0.078125 0q0.5625 -1.0 1.359375 -1.53125q0.796875 -0.546875 1.75 -0.546875zm7.0530396 10.546875q-2.21875 0 -3.4375 -1.359375q-1.203125 -1.359375 -1.203125 -3.84375q0 -2.5625 1.234375 -3.953125q1.234375 -1.390625 3.5 -1.390625q0.734375 0 1.46875 0.171875q0.734375 0.15625 1.15625 0.359375l-0.484375 1.3125q-0.5 -0.203125 -1.109375 -0.328125q-0.609375 -0.140625 -1.0625 -0.140625q-3.109375 0 -3.109375 3.953125q0 1.875 0.75 2.875q0.765625 1.0 2.25 1.0q1.28125 0 2.609375 -0.546875l0 1.359375q-1.015625 0.53125 -2.5625 0.53125zm11.772369 -0.1875l0 -6.578125q0 -1.25 -0.578125 -1.859375q-0.5625 -0.609375 -1.765625 -0.609375q-1.609375 0 -2.34375 0.875q-0.734375 0.875 -0.734375 2.859375l0 5.3125l-1.53125 0l0 -14.4375l1.53125 0l0 4.375q0 0.78125 -0.078125 1.296875l0.09375 0q0.453125 -0.71875 1.296875 -1.140625q0.84375 -0.421875 1.921875 -0.421875q1.859375 0 2.78125 0.890625q0.9375 0.875 0.9375 2.796875l0 6.640625l-1.53125 0zm4.263153 -0.984375q0 -0.625 0.28125 -0.9375q0.28125 -0.328125 0.8125 -0.328125q0.546875 0 0.84375 0.328125q0.296875 0.3125 0.296875 0.9375q0 0.609375 -0.3125 0.9375q-0.296875 0.3125 -0.828125 0.3125q-0.46875 0 -0.78125 -0.28125q-0.3125 -0.296875 -0.3125 -0.96875zm3.9646606 5.546875q-0.890625 0 -1.4375 -0.234375l0 -1.25q0.640625 0.1875 1.265625 0.1875q0.71875 0 1.0625 -0.390625q0.34375 -0.390625 0.34375 -1.203125l0 -11.84375l1.53125 0l0 11.734375q0 3.0 -2.765625 3.0zm1.09375 -17.484375q0 -0.53125 0.25 -0.765625q0.265625 -0.25 0.65625 -0.25q0.375 0 0.640625 0.25q0.28125 0.25 0.28125 0.765625q0 0.515625 -0.28125 0.78125q-0.265625 0.25 -0.640625 0.25q-0.390625 0 -0.65625 -0.25q-0.25 -0.265625 -0.25 -0.78125zm11.4062195 10.140625q0 1.421875 -1.0625 2.203125q-1.046875 0.765625 -2.953125 0.765625q-2.03125 0 -3.15625 -0.640625l0 -1.4375q0.734375 0.375 1.5625 0.59375q0.84375 0.21875 1.625 0.21875q1.203125 0 1.84375 -0.390625q0.65625 -0.390625 0.65625 -1.171875q0 -0.59375 -0.515625 -1.015625q-0.515625 -0.421875 -2.0 -1.0q-1.421875 -0.53125 -2.03125 -0.921875q-0.59375 -0.390625 -0.890625 -0.890625q-0.28125 -0.515625 -0.28125 -1.203125q0 -1.25 1.0 -1.96875q1.015625 -0.71875 2.78125 -0.71875q1.640625 0 3.21875 0.671875l-0.546875 1.25q-1.53125 -0.625 -2.78125 -0.625q-1.09375 0 -1.65625 0.34375q-0.546875 0.34375 -0.546875 0.9375q0 0.421875 0.203125 0.703125q0.203125 0.28125 0.671875 0.546875q0.46875 0.265625 1.78125 0.75q1.8125 0.65625 2.4375 1.328125q0.640625 0.671875 0.640625 1.671875z" fill-rule="nonzero"></path><path fill="#d9d2e9" d="m134.05249 342.53806l140.47244 0l0 41.858276l-140.47244 0z" fill-rule="nonzero"></path><path fill="#000000" d="m154.00523 370.57468q-0.984375 0 -1.8125 -0.359375q-0.8125 -0.375 -1.375 -1.140625l-0.109375 0q0.109375 0.890625 0.109375 1.6875l0 4.1875l-1.53125 0l0 -14.734375l1.25 0l0.203125 1.390625l0.078125 0q0.59375 -0.828125 1.375 -1.203125q0.796875 -0.375 1.8125 -0.375q2.03125 0 3.125 1.390625q1.09375 1.375 1.09375 3.875q0 2.5 -1.125 3.890625q-1.109375 1.390625 -3.09375 1.390625zm-0.21875 -9.234375q-1.5625 0 -2.265625 0.875q-0.6875 0.859375 -0.703125 2.734375l0 0.34375q0 2.140625 0.71875 3.0625q0.71875 0.921875 2.28125 0.921875q1.328125 0 2.0625 -1.0625q0.75 -1.0625 0.75 -2.9375q0 -1.90625 -0.75 -2.921875q-0.734375 -1.015625 -2.09375 -1.015625zm15.698044 3.953125q0 2.484375 -1.25 3.890625q-1.25 1.390625 -3.453125 1.390625q-1.375 0 -2.4375 -0.640625q-1.046875 -0.640625 -1.625 -1.828125q-0.578125 -1.203125 -0.578125 -2.8125q0 -2.484375 1.234375 -3.875q1.25 -1.390625 3.46875 -1.390625q2.125 0 3.375 1.421875q1.265625 1.421875 1.265625 3.84375zm-7.75 0q0 1.953125 0.78125 2.96875q0.78125 1.015625 2.296875 1.015625q1.515625 0 2.296875 -1.015625q0.78125 -1.015625 0.78125 -2.96875q0 -1.9375 -0.78125 -2.9375q-0.78125 -1.015625 -2.3125 -1.015625q-1.515625 0 -2.296875 1.0q-0.765625 0.984375 -0.765625 2.953125zm14.971573 5.28125q-0.984375 0 -1.8125 -0.359375q-0.8125 -0.375 -1.375 -1.140625l-0.109375 0q0.109375 0.890625 0.109375 1.6875l0 4.1875l-1.53125 0l0 -14.734375l1.25 0l0.203125 1.390625l0.078125 0q0.59375 -0.828125 1.375 -1.203125q0.796875 -0.375 1.8125 -0.375q2.03125 0 3.125 1.390625q1.09375 1.375 1.09375 3.875q0 2.5 -1.125 3.890625q-1.109375 1.390625 -3.09375 1.390625zm-0.21875 -9.234375q-1.5625 0 -2.265625 0.875q-0.6875 0.859375 -0.703125 2.734375l0 0.34375q0 2.140625 0.71875 3.0625q0.71875 0.921875 2.28125 0.921875q1.328125 0 2.0625 -1.0625q0.75 -1.0625 0.75 -2.9375q0 -1.90625 -0.75 -2.921875q-0.734375 -1.015625 -2.09375 -1.015625zm8.369919 -1.125l0 6.59375q0 1.25 0.5625 1.859375q0.578125 0.609375 1.78125 0.609375q1.59375 0 2.328125 -0.859375q0.734375 -0.875 0.734375 -2.859375l0 -5.34375l1.546875 0l0 10.171875l-1.265625 0l-0.234375 -1.359375l-0.078125 0q-0.46875 0.75 -1.3125 1.15625q-0.84375 0.390625 -1.921875 0.390625q-1.84375 0 -2.78125 -0.875q-0.921875 -0.890625 -0.921875 -2.828125l0 -6.65625l1.5625 0zm11.544388 10.171875l-1.53125 0l0 -14.4375l1.53125 0l0 14.4375zm9.4374695 0l-0.3125 -1.453125l-0.078125 0q-0.75 0.96875 -1.515625 1.3125q-0.75 0.328125 -1.890625 0.328125q-1.5 0 -2.359375 -0.78125q-0.859375 -0.78125 -0.859375 -2.21875q0 -3.078125 4.921875 -3.234375l1.734375 -0.046875l0 -0.625q0 -1.203125 -0.515625 -1.765625q-0.515625 -0.578125 -1.65625 -0.578125q-1.265625 0 -2.875 0.78125l-0.46875 -1.1875q0.75 -0.40625 1.640625 -0.625q0.90625 -0.234375 1.796875 -0.234375q1.828125 0 2.703125 0.8125q0.875 0.796875 0.875 2.578125l0 6.9375l-1.140625 0zm-3.484375 -1.078125q1.4375 0 2.25 -0.78125q0.828125 -0.796875 0.828125 -2.21875l0 -0.921875l-1.53125 0.0625q-1.84375 0.0625 -2.65625 0.578125q-0.8125 0.5 -0.8125 1.5625q0 0.84375 0.5 1.28125q0.515625 0.4375 1.421875 0.4375zm10.891342 0q0.40625 0 0.78125 -0.0625q0.390625 -0.0625 0.609375 -0.125l0 1.171875q-0.25 0.125 -0.75 0.203125q-0.484375 0.078125 -0.875 0.078125q-2.9375 0 -2.9375 -3.109375l0 -6.046875l-1.46875 0l0 -0.75l1.46875 -0.640625l0.640625 -2.171875l0.890625 0l0 2.359375l2.953125 0l0 1.203125l-2.953125 0l0 5.984375q0 0.921875 0.4375 1.421875q0.4375 0.484375 1.203125 0.484375zm4.8361664 1.078125l-1.53125 0l0 -10.171875l1.53125 0l0 10.171875zm-1.671875 -12.921875q0 -0.53125 0.25 -0.765625q0.265625 -0.25 0.65625 -0.25q0.375 0 0.640625 0.25q0.28125 0.25 0.28125 0.765625q0 0.515625 -0.28125 0.78125q-0.265625 0.25 -0.640625 0.25q-0.390625 0 -0.65625 -0.25q-0.25 -0.265625 -0.25 -0.78125zm13.6249695 7.828125q0 2.484375 -1.25 3.890625q-1.25 1.390625 -3.453125 1.390625q-1.375 0 -2.4375 -0.640625q-1.046875 -0.640625 -1.625 -1.828125q-0.578125 -1.203125 -0.578125 -2.8125q0 -2.484375 1.234375 -3.875q1.25 -1.390625 3.46875 -1.390625q2.125 0 3.375 1.421875q1.265625 1.421875 1.265625 3.84375zm-7.75 0q0 1.953125 0.78125 2.96875q0.78125 1.015625 2.296875 1.015625q1.515625 0 2.296875 -1.015625q0.78125 -1.015625 0.78125 -2.96875q0 -1.9375 -0.78125 -2.9375q-0.78125 -1.015625 -2.3125 -1.015625q-1.515625 0 -2.296875 1.0q-0.765625 0.984375 -0.765625 2.953125zm17.205948 5.09375l0 -6.578125q0 -1.25 -0.578125 -1.859375q-0.5625 -0.609375 -1.765625 -0.609375q-1.59375 0 -2.34375 0.875q-0.734375 0.859375 -0.734375 2.84375l0 5.328125l-1.53125 0l0 -10.171875l1.25 0l0.25 1.390625l0.0625 0q0.484375 -0.75 1.328125 -1.15625q0.859375 -0.421875 1.90625 -0.421875q1.84375 0 2.765625 0.890625q0.921875 0.890625 0.921875 2.828125l0 6.640625l-1.53125 0zm4.263138 -0.984375q0 -0.625 0.28125 -0.9375q0.28125 -0.328125 0.8125 -0.328125q0.546875 0 0.84375 0.328125q0.296875 0.3125 0.296875 0.9375q0 0.609375 -0.3125 0.9375q-0.296875 0.3125 -0.828125 0.3125q-0.46875 0 -0.78125 -0.28125q-0.3125 -0.296875 -0.3125 -0.96875zm3.964676 5.546875q-0.890625 0 -1.4375 -0.234375l0 -1.25q0.640625 0.1875 1.265625 0.1875q0.71875 0 1.0625 -0.390625q0.34375 -0.390625 0.34375 -1.203125l0 -11.84375l1.53125 0l0 11.734375q0 3.0 -2.765625 3.0zm1.09375 -17.484375q0 -0.53125 0.25 -0.765625q0.265625 -0.25 0.65625 -0.25q0.375 0 0.640625 0.25q0.28125 0.25 0.28125 0.765625q0 0.515625 -0.28125 0.78125q-0.265625 0.25 -0.640625 0.25q-0.390625 0 -0.65625 -0.25q-0.25 -0.265625 -0.25 -0.78125zm11.4062195 10.140625q0 1.421875 -1.0625 2.203125q-1.046875 0.765625 -2.953125 0.765625q-2.03125 0 -3.15625 -0.640625l0 -1.4375q0.734375 0.375 1.5625 0.59375q0.84375 0.21875 1.625 0.21875q1.203125 0 1.84375 -0.390625q0.65625 -0.390625 0.65625 -1.171875q0 -0.59375 -0.515625 -1.015625q-0.515625 -0.421875 -2.0 -1.0q-1.421875 -0.53125 -2.03125 -0.921875q-0.59375 -0.390625 -0.890625 -0.890625q-0.28125 -0.515625 -0.28125 -1.203125q0 -1.25 1.0 -1.96875q1.015625 -0.71875 2.78125 -0.71875q1.640625 0 3.21875 0.671875l-0.546875 1.25q-1.53125 -0.625 -2.78125 -0.625q-1.09375 0 -1.65625 0.34375q-0.546875 0.34375 -0.546875 0.9375q0 0.421875 0.203125 0.703125q0.203125 0.28125 0.671875 0.546875q0.46875 0.265625 1.78125 0.75q1.8125 0.65625 2.4375 1.328125q0.640625 0.671875 0.640625 1.671875z" fill-rule="nonzero"></path><path fill="#d9d2e9" d="m141.979 122.020996l140.47244 0l0 41.858276l-140.47244 0z" fill-rule="nonzero"></path><path fill="#000000" d="m195.56795 149.87013l0 -6.609375q0 -1.21875 -0.53125 -1.828125q-0.515625 -0.609375 -1.609375 -0.609375q-1.4375 0 -2.125 0.828125q-0.671875 0.828125 -0.671875 2.546875l0 5.671875l-1.546875 0l0 -6.609375q0 -1.21875 -0.53125 -1.828125q-0.515625 -0.609375 -1.609375 -0.609375q-1.453125 0 -2.125 0.875q-0.671875 0.859375 -0.671875 2.84375l0 5.328125l-1.53125 0l0 -10.171875l1.25 0l0.25 1.390625l0.0625 0q0.4375 -0.734375 1.234375 -1.15625q0.796875 -0.421875 1.78125 -0.421875q2.375 0 3.109375 1.734375l0.078125 0q0.453125 -0.796875 1.3125 -1.265625q0.875 -0.46875 1.96875 -0.46875q1.734375 0 2.59375 0.890625q0.859375 0.890625 0.859375 2.828125l0 6.640625l-1.546875 0zm10.650467 0l-0.3125 -1.453125l-0.078125 0q-0.75 0.96875 -1.515625 1.3125q-0.75 0.328125 -1.890625 0.328125q-1.5 0 -2.359375 -0.78125q-0.859375 -0.78125 -0.859375 -2.21875q0 -3.078125 4.921875 -3.234375l1.734375 -0.046875l0 -0.625q0 -1.203125 -0.515625 -1.765625q-0.515625 -0.578125 -1.65625 -0.578125q-1.265625 0 -2.875 0.78125l-0.46875 -1.1875q0.75 -0.40625 1.640625 -0.625q0.90625 -0.234375 1.796875 -0.234375q1.828125 0 2.703125 0.8125q0.875 0.796875 0.875 2.578125l0 6.9375l-1.140625 0zm-3.484375 -1.078125q1.4375 0 2.25 -0.78125q0.828125 -0.796875 0.828125 -2.21875l0 -0.921875l-1.53125 0.0625q-1.84375 0.0625 -2.65625 0.578125q-0.8125 0.5 -0.8125 1.5625q0 0.84375 0.5 1.28125q0.515625 0.4375 1.421875 0.4375zm9.141342 1.078125l-1.53125 0l0 -10.171875l1.53125 0l0 10.171875zm-1.671875 -12.921875q0 -0.53125 0.25 -0.765625q0.265625 -0.25 0.65625 -0.25q0.375 0 0.640625 0.25q0.28125 0.25 0.28125 0.765625q0 0.515625 -0.28125 0.78125q-0.265625 0.25 -0.640625 0.25q-0.390625 0 -0.65625 -0.25q-0.25 -0.265625 -0.25 -0.78125zm11.8124695 12.921875l0 -6.578125q0 -1.25 -0.578125 -1.859375q-0.5625 -0.609375 -1.765625 -0.609375q-1.59375 0 -2.34375 0.875q-0.734375 0.859375 -0.734375 2.84375l0 5.328125l-1.53125 0l0 -10.171875l1.25 0l0.25 1.390625l0.0625 0q0.484375 -0.75 1.328125 -1.15625q0.859375 -0.421875 1.90625 -0.421875q1.84375 0 2.765625 0.890625q0.921875 0.890625 0.921875 2.828125l0 6.640625l-1.53125 0zm4.263138 -0.984375q0 -0.625 0.28125 -0.9375q0.28125 -0.328125 0.8125 -0.328125q0.546875 0 0.84375 0.328125q0.296875 0.3125 0.296875 0.9375q0 0.609375 -0.3125 0.9375q-0.296875 0.3125 -0.828125 0.3125q-0.46875 0 -0.78125 -0.28125q-0.3125 -0.296875 -0.3125 -0.96875zm3.964676 5.546875q-0.890625 0 -1.4375 -0.234375l0 -1.25q0.640625 0.1875 1.265625 0.1875q0.71875 0 1.0625 -0.390625q0.34375 -0.390625 0.34375 -1.203125l0 -11.84375l1.53125 0l0 11.734375q0 3.0 -2.765625 3.0zm1.09375 -17.484375q0 -0.53125 0.25 -0.765625q0.265625 -0.25 0.65625 -0.25q0.375 0 0.640625 0.25q0.28125 0.25 0.28125 0.765625q0 0.515625 -0.28125 0.78125q-0.265625 0.25 -0.640625 0.25q-0.390625 0 -0.65625 -0.25q-0.25 -0.265625 -0.25 -0.78125zm11.4062195 10.140625q0 1.421875 -1.0625 2.203125q-1.046875 0.765625 -2.953125 0.765625q-2.03125 0 -3.15625 -0.640625l0 -1.4375q0.734375 0.375 1.5625 0.59375q0.84375 0.21875 1.625 0.21875q1.203125 0 1.84375 -0.390625q0.65625 -0.390625 0.65625 -1.171875q0 -0.59375 -0.515625 -1.015625q-0.515625 -0.421875 -2.0 -1.0q-1.421875 -0.53125 -2.03125 -0.921875q-0.59375 -0.390625 -0.890625 -0.890625q-0.28125 -0.515625 -0.28125 -1.203125q0 -1.25 1.0 -1.96875q1.015625 -0.71875 2.78125 -0.71875q1.640625 0 3.21875 0.671875l-0.546875 1.25q-1.53125 -0.625 -2.78125 -0.625q-1.09375 0 -1.65625 0.34375q-0.546875 0.34375 -0.546875 0.9375q0 0.421875 0.203125 0.703125q0.203125 0.28125 0.671875 0.546875q0.46875 0.265625 1.78125 0.75q1.8125 0.65625 2.4375 1.328125q0.640625 0.671875 0.640625 1.671875z" fill-rule="nonzero"></path><path fill="#000000" fill-opacity="0.0" d="m212.21523 163.87927l0 15.862061l43.590546 0l0 15.854462" fill-rule="nonzero"></path><path stroke="#666666" stroke-width="2.0" stroke-linejoin="round" stroke-linecap="butt" d="m212.21523 163.87927l0 15.862061l43.590546 0l0 15.854462" fill-rule="nonzero"></path><path fill="#000000" fill-opacity="0.0" d="m255.81627 237.46194l0 13.804398l40.661423 0l0 13.817642" fill-rule="nonzero"></path><path stroke="#666666" stroke-width="2.0" stroke-linejoin="round" stroke-linecap="butt" d="m255.81627 237.46194l0 13.804398l40.661423 0l0 13.817642" fill-rule="nonzero"></path><path fill="#000000" fill-opacity="0.0" d="m296.46457 306.92914l0 17.804596l-92.18898 0l0 17.817444" fill-rule="nonzero"></path><path stroke="#666666" stroke-width="2.0" stroke-linejoin="round" stroke-linecap="butt" d="m296.46457 306.92914l0 17.804596l-92.18898 0l0 17.817444" fill-rule="nonzero"></path><path fill="#000000" fill-opacity="0.0" d="m296.46457 306.92914l0 17.804596l96.06299 0l0 17.817444" fill-rule="nonzero"></path><path stroke="#666666" stroke-width="2.0" stroke-linejoin="round" stroke-linecap="butt" d="m296.46457 306.92914l0 17.804596l96.06299 0l0 17.817444" fill-rule="nonzero"></path></g></svg>

